<?xml version="1.0" encoding="UTF-8" standalone="no"?>
<!-- Created with Inkscape (http://www.inkscape.org/) -->

<svg
   version="1.1"
   id="svg3558"
   xml:space="preserve"
   width="682.66669"
   height="682.66669"
   viewBox="0 0 682.66669 682.66669"
   xmlns="http://www.w3.org/2000/svg"
   xmlns:svg="http://www.w3.org/2000/svg"><defs
     id="defs3562"><clipPath
       clipPathUnits="userSpaceOnUse"
       id="clipPath3572"><path
         d="M 0,512 H 512 V 0 H 0 Z"
         id="path3570" /></clipPath></defs><g
     id="g3564"
     transform="matrix(1.3333333,0,0,-1.3333333,0,682.66667)"><g
       id="g3566"><g
         id="g3568"
         clip-path="url(#clipPath3572)"><g
           id="g3574"
           transform="translate(172.6572,186.7227)"><path
             d="m 0,0 c 10.177,8.099 11.821,23.021 3.714,33.159 -8.136,10.166 -23.074,11.809 -33.222,3.71 L -66.953,6.937 c -10.177,-8.098 -11.82,-23.05 -3.714,-33.187 8.107,-10.138 23.074,-11.809 33.222,-3.682"
             style="fill:none;stroke:#000000;stroke-width:20.176;stroke-linecap:round;stroke-linejoin:round;stroke-miterlimit:10;stroke-dasharray:none;stroke-opacity:1"
             id="path3576" /></g><g
           id="g3578"
           transform="translate(164.749,119.9219)"><path
             d="M 0,0 C -10.176,-8.127 -11.82,-23.051 -3.713,-33.188 4.394,-43.354 19.36,-44.996 29.509,-36.897 L 66.954,-6.966 C 77.13,1.133 78.774,16.084 70.667,26.222 62.532,36.359 47.594,38.03 37.445,29.903"
             style="fill:none;stroke:#000000;stroke-width:20.176;stroke-linecap:round;stroke-linejoin:round;stroke-miterlimit:10;stroke-dasharray:none;stroke-opacity:1"
             id="path3580" /></g><g
           id="g3582"
           transform="translate(194.2578,83.0244)"><path
             d="m 0,0 c -10.148,-8.099 -11.82,-23.051 -3.686,-33.188 8.108,-10.137 23.046,-11.808 33.222,-3.681 l 20.948,16.764 c 10.148,8.098 11.821,23.022 3.713,33.159 -8.134,10.166 -23.073,11.808 -33.221,3.71"
             style="fill:none;stroke:#000000;stroke-width:20.176;stroke-linecap:round;stroke-linejoin:round;stroke-miterlimit:10;stroke-dasharray:none;stroke-opacity:1"
             id="path3584" /></g><g
           id="g3586"
           transform="translate(350.0205,178.1709)"><path
             d="m 0,0 26.759,-21.38 c 10.147,-8.127 11.82,-23.051 3.713,-33.188 C 22.336,-64.705 7.397,-66.376 -2.75,-58.249 l -29.026,23.163"
             style="fill:none;stroke:#000000;stroke-width:20.176;stroke-linecap:round;stroke-linejoin:round;stroke-miterlimit:10;stroke-dasharray:none;stroke-opacity:1"
             id="path3588" /></g><g
           id="g3590"
           transform="translate(318.2441,143.085)"><path
             d="M 0,0 29.026,-23.163 C 39.174,-31.29 40.847,-46.214 32.711,-56.352 24.604,-66.517 9.638,-68.159 -0.511,-60.061 l -28.998,23.192"
             style="fill:none;stroke:#000000;stroke-width:20.176;stroke-linecap:round;stroke-linejoin:round;stroke-miterlimit:10;stroke-dasharray:none;stroke-opacity:1"
             id="path3592" /></g><g
           id="g3594"
           transform="translate(288.7354,106.2158)"><path
             d="m 0,0 14.485,-11.581 c 10.148,-8.127 11.821,-23.051 3.713,-33.189 -8.135,-10.166 -23.073,-11.808 -33.221,-3.709 l -21.09,16.849"
             style="fill:none;stroke:#000000;stroke-width:20.176;stroke-linecap:round;stroke-linejoin:round;stroke-miterlimit:10;stroke-dasharray:none;stroke-opacity:1"
             id="path3596" /></g><g
           id="g3598"
           transform="translate(482.709,271.335)"><path
             d="M 0,0 17.376,-30.696 C 21.401,-37.832 18.878,-47.035 11.707,-51 L -15.08,-65.838 c -7.172,-3.965 -16.3,-1.473 -20.324,5.635 L -112.62,76.371 c -4.053,7.137 -1.53,16.312 5.641,20.275 l 26.816,14.839 c 7.171,3.964 16.27,1.5 20.296,-5.635 l 15.675,-27.695"
             style="fill:none;stroke:#000000;stroke-width:20.176;stroke-linecap:round;stroke-linejoin:round;stroke-miterlimit:10;stroke-dasharray:none;stroke-opacity:1"
             id="path3600" /></g><g
           id="g3602"
           transform="translate(404.416,195.1895)"><path
             d="M 0,0 C 6.321,13.648 20.098,23.758 35.915,28.289"
             style="fill:none;stroke:#000000;stroke-width:20.176;stroke-linecap:round;stroke-linejoin:round;stroke-miterlimit:10;stroke-dasharray:none;stroke-opacity:1"
             id="path3604" /></g><g
           id="g3606"
           transform="translate(376.7793,156.791)"><path
             d="m 0,0 c 10.147,-8.127 25.114,-6.456 33.222,3.682 8.134,10.136 6.463,25.089 -3.686,33.187 L -2.92,62.808 c -15.761,12.573 -33.562,26.505 -50.456,38.625 -30.558,21.889 -45.609,36.444 -83.905,28.742 -28.942,-5.834 -52.356,3.002 -58.45,28.062 -3.912,16.113 9.807,23.617 36.992,26.024 l 43.37,3.88 c 8.56,0.764 13.662,1.556 27.523,-3.286 l 26.164,-9.146 c 17.688,-6.173 15.307,-7.815 33.703,-2.492 l 26.874,7.787"
             style="fill:none;stroke:#000000;stroke-width:20.176;stroke-linecap:round;stroke-linejoin:round;stroke-miterlimit:10;stroke-dasharray:none;stroke-opacity:1"
             id="path3608" /></g><g
           id="g3610"
           transform="translate(136.2607,367.9814)"><path
             d="m 0,0 -26.787,14.839 c -7.171,3.964 -16.299,1.5 -20.324,-5.636 l -77.215,-136.546 c -4.054,-7.136 -1.53,-16.339 5.64,-20.303 l 26.788,-14.838 c 7.171,-3.965 16.299,-1.473 20.324,5.634 L 5.642,-20.275 C 9.694,-13.139 7.172,-3.964 0,0 Z"
             style="fill:none;stroke:#000000;stroke-width:20.176;stroke-linecap:round;stroke-linejoin:round;stroke-miterlimit:10;stroke-dasharray:none;stroke-opacity:1"
             id="path3612" /></g><g
           id="g3614"
           transform="translate(181.1328,324.9678)"><path
             d="M 0,0 -44.759,12.969"
             style="fill:none;stroke:#000000;stroke-width:20.176;stroke-linecap:round;stroke-linejoin:round;stroke-miterlimit:10;stroke-dasharray:none;stroke-opacity:1"
             id="path3616" /></g><g
           id="g3618"
           transform="translate(107.6035,195.1895)"><path
             d="M 0,0 C -6.35,13.648 -20.126,23.758 -35.943,28.289"
             style="fill:none;stroke:#000000;stroke-width:20.176;stroke-linecap:round;stroke-linejoin:round;stroke-miterlimit:10;stroke-dasharray:none;stroke-opacity:1"
             id="path3620" /></g><g
           id="g3622"
           transform="translate(255.9951,420.0576)"><path
             d="M 0,0 V 50.942"
             style="fill:none;stroke:#000000;stroke-width:20.176;stroke-linecap:round;stroke-linejoin:round;stroke-miterlimit:10;stroke-dasharray:none;stroke-opacity:1"
             id="path3624" /></g><g
           id="g3626"
           transform="translate(189.2686,398.9609)"><path
             d="M 0,0 -26.646,42.277"
             style="fill:none;stroke:#000000;stroke-width:20.176;stroke-linecap:round;stroke-linejoin:round;stroke-miterlimit:10;stroke-dasharray:none;stroke-opacity:1"
             id="path3628" /></g><g
           id="g3630"
           transform="translate(322.751,398.9609)"><path
             d="M 0,0 26.617,42.277"
             style="fill:none;stroke:#000000;stroke-width:20.176;stroke-linecap:round;stroke-linejoin:round;stroke-miterlimit:10;stroke-dasharray:none;stroke-opacity:1"
             id="path3632" /></g><g
           id="g3634"
           transform="translate(135.2119,156.791)"><path
             d="M 0,0 53.943,43.099 C 64.091,51.197 79.058,49.527 87.165,39.39 95.272,29.252 93.628,14.328 83.452,6.201 L 29.537,-36.869 C 19.361,-44.996 4.423,-43.325 -3.685,-33.188 -11.82,-23.051 -10.147,-8.127 0,0 Z"
             style="fill:none;stroke:#000000;stroke-width:20.176;stroke-linecap:round;stroke-linejoin:round;stroke-miterlimit:10;stroke-dasharray:none;stroke-opacity:1"
             id="path3636" /></g><g
           id="g3638"
           transform="translate(460.5703,310.3838)"><path
             d="M 0,0 V 0.028"
             style="fill:none;stroke:#000000;stroke-width:20.176;stroke-linecap:round;stroke-linejoin:round;stroke-miterlimit:10;stroke-dasharray:none;stroke-opacity:1"
             id="path3640" /></g></g></g></g></svg>
